<svg width="1024" height="1024" xmlns="http://www.w3.org/2000/svg" viewBox="0 0 1024 1024">
<defs>
  <filter id="glow" x="-150%" y="-150%" width="400%" height="400%">
    <feGaussianBlur stdDeviation="6" result="b"/>
    <feMerge><feMergeNode in="b"/><feMergeNode in="SourceGraphic"/></feMerge>
  </filter>
  <filter id="softglow" x="-80%" y="-80%" width="260%" height="260%">
    <feGaussianBlur stdDeviation="10" result="b"/>
    <feMerge><feMergeNode in="b"/><feMergeNode in="SourceGraphic"/></feMerge>
  </filter>
  <radialGradient id="bgg" cx="50%" cy="42%" r="75%">
    <stop offset="0%" stop-color="#ffffff"/><stop offset="100%" stop-color="#f4f7ee"/>
  </radialGradient>
  <linearGradient id="goldg" x1="0" y1="0" x2="0" y2="1">
    <stop offset="0%" stop-color="#f0cf55"/><stop offset="55%" stop-color="#dfb32b"/>
    <stop offset="100%" stop-color="#a8871c"/>
  </linearGradient>
  <linearGradient id="greeng" x1="0" y1="0" x2="0" y2="1">
    <stop offset="0%" stop-color="#6aa832"/><stop offset="60%" stop-color="#3f7a24"/>
    <stop offset="100%" stop-color="#2d5a1a"/>
  </linearGradient></defs>
<rect width="1024" height="1024" fill="url(#bgg)"/><circle cx="512" cy="482" r="300" fill="#e9f0dd" opacity="0.9"/>
<circle cx="512" cy="512" r="400" fill="none" stroke="#9dbb7a" stroke-width="3" stroke-dasharray="2 14" opacity="0.9"/><circle cx="512" cy="512" r="400" fill="none" stroke="#dfb32b" stroke-width="1.5" opacity="0.35"/>
<circle cx="512" cy="112" r="9" fill="#3f7a24" filter="url(#glow)"/><circle cx="887.9" cy="648.8" r="9" fill="#3f7a24" filter="url(#glow)"/><circle cx="136.1" cy="648.8" r="9" fill="#3f7a24" filter="url(#glow)"/>
<line x1="512" y1="512" x2="858" y2="312" stroke="#9dbb7a" stroke-width="3" stroke-dasharray="2 12" opacity="0.8"/>
<line x1="512" y1="512" x2="166" y2="312" stroke="#9dbb7a" stroke-width="3" stroke-dasharray="2 12" opacity="0.8"/>
<line x1="512" y1="512" x2="512" y2="912" stroke="#9dbb7a" stroke-width="3" stroke-dasharray="2 12" opacity="0.8"/>
<!-- central: your single point of contact -->
<g filter="url(#softglow)"><circle cx="512" cy="512" r="200" fill="#ffffff" stroke="url(#greeng)" stroke-width="10"/></g>
<circle cx="512" cy="446" r="56" fill="url(#goldg)"/>
<path d="M400,646 C400,548 450,510 512,510 C574,510 624,548 624,646 C586,666 438,666 400,646 Z" fill="url(#goldg)"/>
<!-- shield badge: security expertise -->
<g filter="url(#softglow)"><circle cx="648" cy="636" r="60" fill="#ffffff" stroke="#3f7a24" stroke-width="6"/></g>
<g transform="translate(648,636)">
  <path d="M0,-34 L28,-24 L28,-2 C28,18 16,32 0,38 C-16,32 -28,18 -28,-2 L-28,-24 Z" fill="url(#goldg)"/>
  <path d="M-11,-2 L-3,7 L13,-12" fill="none" stroke="#ffffff" stroke-width="7" stroke-linecap="round" stroke-linejoin="round"/>
</g>
<!-- partner network -->
<g filter="url(#softglow)"><circle cx="858.4" cy="312" r="72" fill="#ffffff" stroke="#3f7a24" stroke-width="6"/></g>
<g transform="translate(858.4,312) scale(0.82)"><circle cx="0" cy="-11" r="13" fill="none" stroke="#dfb32b" stroke-width="6"/><path d="M-24,26 C-24,6 -12,-1 0,-1 C12,-1 24,6 24,26" fill="none" stroke="#dfb32b" stroke-width="6" stroke-linecap="round"/></g>
<g filter="url(#softglow)"><circle cx="165.6" cy="312" r="72" fill="#ffffff" stroke="#3f7a24" stroke-width="6"/></g>
<g transform="translate(165.6,312) scale(0.82)"><circle cx="0" cy="-11" r="13" fill="none" stroke="#dfb32b" stroke-width="6"/><path d="M-24,26 C-24,6 -12,-1 0,-1 C12,-1 24,6 24,26" fill="none" stroke="#dfb32b" stroke-width="6" stroke-linecap="round"/></g>
<g filter="url(#softglow)"><circle cx="512" cy="912" r="72" fill="#ffffff" stroke="#3f7a24" stroke-width="6"/></g>
<g transform="translate(512,912) scale(0.82)"><circle cx="-12" cy="-12" r="12" fill="none" stroke="#dfb32b" stroke-width="6"/><path d="M-32,28 C-32,8 -22,2 -12,2 C-2,2 8,8 8,28" fill="none" stroke="#dfb32b" stroke-width="6" stroke-linecap="round"/><circle cx="16" cy="-16" r="10" fill="none" stroke="#dfb32b" stroke-width="6"/><path d="M14,0 C24,0 32,6 32,24" fill="none" stroke="#dfb32b" stroke-width="6" stroke-linecap="round"/></g>
</svg>
