<svg width="1024" height="1024" xmlns="http://www.w3.org/2000/svg" viewBox="0 0 1024 1024">
<defs>
  <filter id="glow" x="-150%" y="-150%" width="400%" height="400%">
    <feGaussianBlur stdDeviation="6" result="b"/>
    <feMerge><feMergeNode in="b"/><feMergeNode in="SourceGraphic"/></feMerge>
  </filter>
  <filter id="softglow" x="-80%" y="-80%" width="260%" height="260%">
    <feGaussianBlur stdDeviation="10" result="b"/>
    <feMerge><feMergeNode in="b"/><feMergeNode in="SourceGraphic"/></feMerge>
  </filter>
  <radialGradient id="bgg" cx="50%" cy="42%" r="75%">
    <stop offset="0%" stop-color="#0b1508"/><stop offset="100%" stop-color="#050a04"/>
  </radialGradient>
  <linearGradient id="goldg" x1="0" y1="0" x2="0" y2="1">
    <stop offset="0%" stop-color="#f6dd6a"/><stop offset="55%" stop-color="#e8c132"/>
    <stop offset="100%" stop-color="#a8871c"/>
  </linearGradient>
  <linearGradient id="greeng" x1="0" y1="0" x2="0" y2="1">
    <stop offset="0%" stop-color="#8fce3c"/><stop offset="60%" stop-color="#4a8c2a"/>
    <stop offset="100%" stop-color="#2f5c1a"/>
  </linearGradient></defs>
<rect width="1024" height="1024" fill="url(#bgg)"/><circle cx="512" cy="512" r="330" fill="#4a8c2a" opacity="0.10"/><circle cx="512" cy="512" r="230" fill="#8fce3c" opacity="0.07"/>
<circle cx="512" cy="512" r="400" fill="none" stroke="#5a7a2a" stroke-width="3" stroke-dasharray="2 14" opacity="0.9"/><circle cx="512" cy="512" r="400" fill="none" stroke="#e8c132" stroke-width="1.5" opacity="0.35"/><circle cx="512.0" cy="112.0" r="9" fill="#c8e84a" filter="url(#glow)"/><circle cx="712.0" cy="165.6" r="9" fill="#c8e84a" filter="url(#glow)"/><circle cx="905.9" cy="581.5" r="9" fill="#c8e84a" filter="url(#glow)"/><circle cx="512.0" cy="912.0" r="9" fill="#c8e84a" filter="url(#glow)"/><circle cx="118.1" cy="581.5" r="9" fill="#c8e84a" filter="url(#glow)"/><circle cx="312.0" cy="165.6" r="9" fill="#c8e84a" filter="url(#glow)"/>
<g filter="url(#softglow)"><circle cx="858.4" cy="312.0" r="72" fill="#0d1a0a" stroke="#7ab438" stroke-width="6"/></g><g transform="translate(858.4,312.0) scale(0.82)"><circle cx="-12" cy="-12" r="12" fill="none" stroke="#e8c132" stroke-width="6"/><path d="M-32,28 C-32,8 -22,2 -12,2 C-2,2 8,8 8,28" fill="none" stroke="#e8c132" stroke-width="6" stroke-linecap="round"/><circle cx="16" cy="-16" r="10" fill="none" stroke="#e8c132" stroke-width="6"/><path d="M14,0 C24,0 32,6 32,24" fill="none" stroke="#e8c132" stroke-width="6" stroke-linecap="round"/></g>
<g filter="url(#softglow)"><circle cx="794.8" cy="794.8" r="72" fill="#0d1a0a" stroke="#7ab438" stroke-width="6"/></g><g transform="translate(794.8,794.8) scale(0.82)"><path d="M-36,-30 L36,-30 Q44,-30 44,-22 L44,10 Q44,18 36,18 L-8,18 L-26,34 L-26,18 L-36,18 Q-44,18 -44,10 L-44,-22 Q-44,-30 -36,-30 Z" fill="none" stroke="#e8c132" stroke-width="6" stroke-linejoin="round"/><circle cx="-18" cy="-6" r="4" fill="#e8c132"/><circle cx="0" cy="-6" r="4" fill="#e8c132"/><circle cx="18" cy="-6" r="4" fill="#e8c132"/></g>
<g filter="url(#softglow)"><circle cx="229.2" cy="794.8" r="72" fill="#0d1a0a" stroke="#7ab438" stroke-width="6"/></g><g transform="translate(229.2,794.8) scale(0.82)"><circle cx="0" cy="-8" r="26" fill="none" stroke="#e8c132" stroke-width="7"/><path d="M-12,14 L-12,28 L12,28 L12,14" fill="none" stroke="#e8c132" stroke-width="7"/><line x1="-10" y1="38" x2="10" y2="38" stroke="#e8c132" stroke-width="7" stroke-linecap="round"/><path d="M0,-20 L-6,-4 L6,-4 L0,10" fill="none" stroke="#e8c132" stroke-width="5" stroke-linejoin="round" stroke-linecap="round"/></g>
<g filter="url(#softglow)"><circle cx="165.6" cy="312.0" r="72" fill="#0d1a0a" stroke="#7ab438" stroke-width="6"/></g><g transform="translate(165.6,312.0) scale(0.82)"><line x1="0.0" y1="-24.0" x2="0.0" y2="-36.0" stroke="#e8c132" stroke-width="10"/><line x1="17.0" y1="-17.0" x2="25.5" y2="-25.5" stroke="#e8c132" stroke-width="10"/><line x1="24.0" y1="-0.0" x2="36.0" y2="-0.0" stroke="#e8c132" stroke-width="10"/><line x1="17.0" y1="17.0" x2="25.5" y2="25.5" stroke="#e8c132" stroke-width="10"/><line x1="0.0" y1="24.0" x2="0.0" y2="36.0" stroke="#e8c132" stroke-width="10"/><line x1="-17.0" y1="17.0" x2="-25.5" y2="25.5" stroke="#e8c132" stroke-width="10"/><line x1="-24.0" y1="0.0" x2="-36.0" y2="0.0" stroke="#e8c132" stroke-width="10"/><line x1="-17.0" y1="-17.0" x2="-25.5" y2="-25.5" stroke="#e8c132" stroke-width="10"/><circle cx="0" cy="0" r="24" fill="none" stroke="#e8c132" stroke-width="7"/><circle cx="0" cy="0" r="9" fill="none" stroke="#e8c132" stroke-width="6"/></g>
<circle cx="512" cy="512" r="320" fill="none" stroke="#e8c132" stroke-width="2" opacity="0.4"/><circle cx="512" cy="512" r="265" fill="none" stroke="#4a8c2a" stroke-width="2" opacity="0.4"/><g transform="translate(512,505)"><g filter="url(#softglow)"><circle r="215" fill="#2f5c1a" stroke="url(#goldg)" stroke-width="16"/></g><path d="M-95,-105 L0,-140 L95,-105" fill="none" stroke="#e8c132" stroke-width="4" opacity="0.8"/><circle cx="0" cy="-140" r="17" fill="url(#greeng)" stroke="#8fce3c" stroke-width="4"/><circle cx="-95" cy="-105" r="13" fill="url(#greeng)" stroke="#8fce3c" stroke-width="4"/><circle cx="95" cy="-105" r="13" fill="url(#greeng)" stroke="#8fce3c" stroke-width="4"/><g transform="translate(0,30) scale(1.15)"><g transform="rotate(-10)"><rect x="-205" y="-26" width="130" height="56" rx="28" fill="url(#goldg)"/><rect x="-118" y="-30" width="18" height="64" rx="7" fill="#2f5c1a" opacity="0.5"/></g><g transform="rotate(10)"><rect x="75" y="-26" width="130" height="56" rx="28" fill="url(#goldg)"/><rect x="100" y="-30" width="18" height="64" rx="7" fill="#2f5c1a" opacity="0.5"/></g><g transform="rotate(10)"><rect x="-58" y="-32" width="140" height="62" rx="26" fill="url(#goldg)" stroke="#a8871c" stroke-width="3"/></g><g transform="rotate(-10)"><rect x="-84" y="-28" width="140" height="60" rx="26" fill="url(#goldg)" stroke="#a8871c" stroke-width="3"/><rect x="10" y="-46" width="52" height="30" rx="15" fill="url(#goldg)" stroke="#a8871c" stroke-width="3"/><path d="M14,-2 C18,10 18,20 14,28" fill="none" stroke="#2f5c1a" stroke-width="4.5" stroke-linecap="round" opacity="0.55"/><path d="M32,-2 C36,10 36,20 32,28" fill="none" stroke="#2f5c1a" stroke-width="4.5" stroke-linecap="round" opacity="0.55"/><path d="M50,-2 C54,10 54,20 50,28" fill="none" stroke="#2f5c1a" stroke-width="4.5" stroke-linecap="round" opacity="0.55"/></g></g></g>
</svg>