<svg width="1024" height="1024" xmlns="http://www.w3.org/2000/svg" viewBox="0 0 1024 1024">
<defs>
  <filter id="glow" x="-150%" y="-150%" width="400%" height="400%">
    <feGaussianBlur stdDeviation="6" result="b"/><feMerge><feMergeNode in="b"/><feMergeNode in="SourceGraphic"/></feMerge>
  </filter>
  <filter id="softglow" x="-80%" y="-80%" width="260%" height="260%">
    <feGaussianBlur stdDeviation="10" result="b"/><feMerge><feMergeNode in="b"/><feMergeNode in="SourceGraphic"/></feMerge>
  </filter>
  <radialGradient id="bgg" cx="50%" cy="42%" r="75%">
    <stop offset="0%" stop-color="#ffffff"/><stop offset="100%" stop-color="#f4f7ee"/>
  </radialGradient>
  <linearGradient id="goldg" x1="0" y1="0" x2="0" y2="1">
    <stop offset="0%" stop-color="#f0cf55"/><stop offset="55%" stop-color="#dfb32b"/><stop offset="100%" stop-color="#a8871c"/>
  </linearGradient>
</defs>
<rect width="1024" height="1024" fill="url(#bgg)"/>
<circle cx="512" cy="512" r="330" fill="#e9f0dd" opacity="0.35"/><circle cx="512" cy="512" r="230" fill="#e9f0dd" opacity="0.25"/>
<circle cx="512" cy="512" r="400" fill="none" stroke="#9dbb7a" stroke-width="3" stroke-dasharray="2 14" opacity="0.9"/>
<circle cx="512" cy="512" r="400" fill="none" stroke="#dfb32b" stroke-width="1.5" opacity="0.35"/>
<circle cx="512" cy="112" r="9" fill="#3f7a24" filter="url(#glow)"/><circle cx="887.9" cy="648.8" r="9" fill="#3f7a24" filter="url(#glow)"/><circle cx="136.1" cy="648.8" r="9" fill="#3f7a24" filter="url(#glow)"/>
<!-- central envelope -->
<g filter="url(#softglow)"><circle cx="512" cy="512" r="210" fill="#ffffff" stroke="url(#goldg)" stroke-width="12"/></g>
<g transform="translate(512,512)">
  <rect x="-108" y="-72" width="216" height="144" rx="16" fill="none" stroke="url(#goldg)" stroke-width="16"/>
  <path d="M-100,-60 L0,24 L100,-60" fill="none" stroke="url(#goldg)" stroke-width="16" stroke-linecap="round" stroke-linejoin="round"/>
</g>
<!-- satellites: phone / pin / chat -->
<g filter="url(#softglow)"><circle cx="858.4" cy="312" r="72" fill="#ffffff" stroke="#3f7a24" stroke-width="6"/></g>
<g transform="translate(858.4,312)"><path d="M-26,-16 C-26,-24 -20,-30 -12,-30 L-2,-30 L6,-8 L-6,2 C0,16 10,26 24,32 L34,20 L56,28 L56,38 C56,46 50,52 42,52 C4,48 -22,22 -26,-16 Z" transform="scale(0.55) translate(-14,-10)" fill="#dfb32b"/></g>
<g filter="url(#softglow)"><circle cx="165.6" cy="312" r="72" fill="#ffffff" stroke="#3f7a24" stroke-width="6"/></g>
<g transform="translate(165.6,312) scale(0.82)"><path d="M0,-34 C18,-34 32,-20 32,-2 C32,16 12,34 0,44 C-12,34 -32,16 -32,-2 C-32,-20 -18,-34 0,-34 Z" fill="none" stroke="#dfb32b" stroke-width="6.5" stroke-linejoin="round"/><circle cx="0" cy="-2" r="11" fill="#dfb32b"/></g>
<g filter="url(#softglow)"><circle cx="512" cy="912" r="72" fill="#ffffff" stroke="#3f7a24" stroke-width="6"/></g>
<g transform="translate(512,912) scale(0.82)"><path d="M-32,-24 L32,-24 C38,-24 42,-20 42,-14 L42,14 C42,20 38,24 32,24 L-6,24 L-26,40 L-26,24 L-32,24 C-38,24 -42,20 -42,14 L-42,-14 C-42,-20 -38,-24 -32,-24 Z" fill="none" stroke="#dfb32b" stroke-width="6.5" stroke-linejoin="round"/><circle cx="-16" cy="0" r="4.5" fill="#dfb32b"/><circle cx="0" cy="0" r="4.5" fill="#dfb32b"/><circle cx="16" cy="0" r="4.5" fill="#dfb32b"/></g>
</svg>