<svg xmlns="http://www.w3.org/2000/svg" viewBox="0 0 1024 1024">
<defs>
  <filter id="glow" x="-150%" y="-150%" width="400%" height="400%">
    <feGaussianBlur stdDeviation="6" result="b"/>
    <feMerge><feMergeNode in="b"/><feMergeNode in="SourceGraphic"/></feMerge>
  </filter>
  <filter id="softglow" x="-80%" y="-80%" width="260%" height="260%">
    <feGaussianBlur stdDeviation="10" result="b"/>
    <feMerge><feMergeNode in="b"/><feMergeNode in="SourceGraphic"/></feMerge>
  </filter>
  <radialGradient id="bgg" cx="50%" cy="42%" r="75%">
    <stop offset="0%" stop-color="#0b1508"/><stop offset="100%" stop-color="#050a04"/>
  </radialGradient>
  <linearGradient id="goldg" x1="0" y1="0" x2="0" y2="1">
    <stop offset="0%" stop-color="#f6dd6a"/><stop offset="55%" stop-color="#e8c132"/>
    <stop offset="100%" stop-color="#a8871c"/>
  </linearGradient>
  <linearGradient id="greeng" x1="0" y1="0" x2="0" y2="1">
    <stop offset="0%" stop-color="#8fce3c"/><stop offset="60%" stop-color="#4a8c2a"/>
    <stop offset="100%" stop-color="#2f5c1a"/>
  </linearGradient></defs>
<rect width="1024" height="1024" fill="url(#bgg)"/><circle cx="512" cy="512" r="330" fill="#4a8c2a" opacity="0.10"/><circle cx="512" cy="512" r="230" fill="#8fce3c" opacity="0.07"/>
<circle cx="512" cy="512" r="400" fill="none" stroke="#5a7a2a" stroke-width="3" stroke-dasharray="2 14" opacity="0.9"/><circle cx="512" cy="512" r="400" fill="none" stroke="#e8c132" stroke-width="1.5" opacity="0.35"/><circle cx="512.0" cy="112.0" r="9" fill="#c8e84a" filter="url(#glow)"/><circle cx="512.0" cy="912.0" r="9" fill="#c8e84a" filter="url(#glow)"/>
<g filter="url(#softglow)"><circle cx="229.2" cy="229.2" r="72" fill="#0d1a0a" stroke="#7ab438" stroke-width="6"/></g><g transform="translate(229.2,229.2) scale(0.82)"><rect x="-38" y="-26" width="76" height="52" rx="6" fill="none" stroke="#e8c132" stroke-width="7"/><path d="M-38,-20 L0,8 L38,-20" fill="none" stroke="#e8c132" stroke-width="7" stroke-linejoin="round"/></g>
<g filter="url(#softglow)"><circle cx="794.8" cy="229.2" r="72" fill="#0d1a0a" stroke="#7ab438" stroke-width="6"/></g><g transform="translate(794.8,229.2) scale(0.82)"><path d="M-40,-22 L-12,-22 L-4,-12 L40,-12 L40,28 L-40,28 Z" fill="none" stroke="#e8c132" stroke-width="7" stroke-linejoin="round"/></g>
<g filter="url(#softglow)"><circle cx="112.0" cy="512.0" r="72" fill="#0d1a0a" stroke="#7ab438" stroke-width="6"/></g><g transform="translate(112.0,512.0) scale(0.82)"><path d="M0,-34 C18,-34 28,-20 28,-2 L28,14 L36,24 L-36,24 L-28,14 L-28,-2 C-28,-20 -18,-34 0,-34 Z" fill="none" stroke="#e8c132" stroke-width="7" stroke-linejoin="round"/><path d="M-9,32 A9,9 0 0 0 9,32" fill="none" stroke="#e8c132" stroke-width="7"/></g>
<g filter="url(#softglow)"><circle cx="912.0" cy="512.0" r="72" fill="#0d1a0a" stroke="#7ab438" stroke-width="6"/></g><g transform="translate(912.0,512.0) scale(0.82)"><rect x="-30" y="-26" width="60" height="38" rx="4" fill="none" stroke="#e8c132" stroke-width="7"/><path d="M-42,26 L42,26 L34,12 L-34,12 Z" fill="none" stroke="#e8c132" stroke-width="6" stroke-linejoin="round"/></g>
<g filter="url(#softglow)"><circle cx="229.2" cy="794.8" r="72" fill="#0d1a0a" stroke="#7ab438" stroke-width="6"/></g><g transform="translate(229.2,794.8) scale(0.82)"><rect x="-36" y="-30" width="72" height="46" rx="5" fill="none" stroke="#e8c132" stroke-width="7"/><line x1="0" y1="16" x2="0" y2="30" stroke="#e8c132" stroke-width="7"/><line x1="-18" y1="32" x2="18" y2="32" stroke="#e8c132" stroke-width="7" stroke-linecap="round"/></g>
<g filter="url(#softglow)"><circle cx="794.8" cy="794.8" r="72" fill="#0d1a0a" stroke="#7ab438" stroke-width="6"/></g><g transform="translate(794.8,794.8) scale(0.82)"><path d="M0,-36 L30,-24 L30,0 C30,20 16,34 0,40 C-16,34 -30,20 -30,0 L-30,-24 Z" fill="none" stroke="#e8c132" stroke-width="7" stroke-linejoin="round"/><path d="M-13,0 L-4,10 L14,-12" fill="none" stroke="#e8c132" stroke-width="7" stroke-linecap="round" stroke-linejoin="round"/></g>
<g stroke="#4a8c2a" stroke-width="1.5" opacity="0.35"><line x1="512" y1="182" x2="706" y2="245"/><line x1="512" y1="182" x2="574" y2="322"/><line x1="706" y1="245" x2="574" y2="322"/><line x1="706" y1="245" x2="826" y2="410"/><line x1="706" y1="245" x2="674" y2="394"/><line x1="826" y1="410" x2="674" y2="394"/><line x1="826" y1="410" x2="826" y2="614"/><line x1="826" y1="410" x2="712" y2="512"/><line x1="826" y1="614" x2="712" y2="512"/><line x1="826" y1="614" x2="706" y2="779"/><line x1="826" y1="614" x2="674" y2="630"/><line x1="706" y1="779" x2="674" y2="630"/><line x1="706" y1="779" x2="512" y2="842"/><line x1="706" y1="779" x2="574" y2="702"/><line x1="512" y1="842" x2="574" y2="702"/><line x1="512" y1="842" x2="318" y2="779"/><line x1="512" y1="842" x2="450" y2="702"/><line x1="318" y1="779" x2="450" y2="702"/><line x1="318" y1="779" x2="198" y2="614"/><line x1="318" y1="779" x2="350" y2="630"/><line x1="198" y1="614" x2="350" y2="630"/><line x1="198" y1="614" x2="198" y2="410"/><line x1="198" y1="614" x2="312" y2="512"/><line x1="198" y1="410" x2="312" y2="512"/><line x1="198" y1="410" x2="318" y2="245"/><line x1="198" y1="410" x2="350" y2="394"/><line x1="318" y1="245" x2="350" y2="394"/><line x1="318" y1="245" x2="512" y2="182"/><line x1="318" y1="245" x2="450" y2="322"/><line x1="512" y1="182" x2="450" y2="322"/></g><circle cx="512" cy="182" r="5" fill="#c8e84a" opacity="0.8"/><circle cx="706" cy="245" r="5" fill="#c8e84a" opacity="0.8"/><circle cx="826" cy="410" r="5" fill="#c8e84a" opacity="0.8"/><circle cx="826" cy="614" r="5" fill="#c8e84a" opacity="0.8"/><circle cx="706" cy="779" r="5" fill="#c8e84a" opacity="0.8"/><circle cx="512" cy="842" r="5" fill="#c8e84a" opacity="0.8"/><circle cx="318" cy="779" r="5" fill="#c8e84a" opacity="0.8"/><circle cx="198" cy="614" r="5" fill="#c8e84a" opacity="0.8"/><circle cx="198" cy="410" r="5" fill="#c8e84a" opacity="0.8"/><circle cx="318" cy="245" r="5" fill="#c8e84a" opacity="0.8"/><circle cx="574" cy="322" r="5" fill="#c8e84a" opacity="0.8"/><circle cx="674" cy="394" r="5" fill="#c8e84a" opacity="0.8"/><circle cx="712" cy="512" r="5" fill="#c8e84a" opacity="0.8"/><circle cx="674" cy="630" r="5" fill="#c8e84a" opacity="0.8"/><circle cx="574" cy="702" r="5" fill="#c8e84a" opacity="0.8"/><circle cx="450" cy="702" r="5" fill="#c8e84a" opacity="0.8"/><circle cx="350" cy="630" r="5" fill="#c8e84a" opacity="0.8"/><circle cx="312" cy="512" r="5" fill="#c8e84a" opacity="0.8"/><circle cx="350" cy="394" r="5" fill="#c8e84a" opacity="0.8"/><circle cx="450" cy="322" r="5" fill="#c8e84a" opacity="0.8"/><g transform="translate(512,505) scale(1.35)" filter="url(#softglow)"><path d="M0,-110 L95,-78 L95,-6 C95,62 55,112 0,134 C-55,112 -95,62 -95,-6 L-95,-78 Z" fill="url(#goldg)" stroke="#f6dd6a" stroke-width="5"/><path d="M0,-88 L75,-62 L75,-6 C75,50 44,90 0,110 L0,-88 Z" fill="#2f5c1a" opacity="0.55"/><path d="M14,-58 L-30,10 L-4,10 L-16,64 L34,-14 L6,-14 Z" fill="#f6dd6a" stroke="#a8871c" stroke-width="3" stroke-linejoin="round"/></g>
</svg>