<svg width="1024" height="1024" xmlns="http://www.w3.org/2000/svg" viewBox="0 0 1024 1024">
<defs>
  <filter id="glow" x="-150%" y="-150%" width="400%" height="400%">
    <feGaussianBlur stdDeviation="6" result="b"/>
    <feMerge><feMergeNode in="b"/><feMergeNode in="SourceGraphic"/></feMerge>
  </filter>
  <filter id="softglow" x="-80%" y="-80%" width="260%" height="260%">
    <feGaussianBlur stdDeviation="10" result="b"/>
    <feMerge><feMergeNode in="b"/><feMergeNode in="SourceGraphic"/></feMerge>
  </filter>
  <radialGradient id="bgg" cx="50%" cy="42%" r="75%">
    <stop offset="0%" stop-color="#ffffff"/><stop offset="100%" stop-color="#f4f7ee"/>
  </radialGradient>
  <linearGradient id="goldg" x1="0" y1="0" x2="0" y2="1">
    <stop offset="0%" stop-color="#f0cf55"/><stop offset="55%" stop-color="#dfb32b"/>
    <stop offset="100%" stop-color="#a8871c"/>
  </linearGradient>
  <linearGradient id="greeng" x1="0" y1="0" x2="0" y2="1">
    <stop offset="0%" stop-color="#6aa832"/><stop offset="60%" stop-color="#3f7a24"/>
    <stop offset="100%" stop-color="#2d5a1a"/>
  </linearGradient></defs>
<rect width="1024" height="1024" fill="url(#bgg)"/><circle cx="512" cy="482" r="300" fill="#e9f0dd" opacity="0.9"/>
<circle cx="512" cy="512" r="400" fill="none" stroke="#9dbb7a" stroke-width="3" stroke-dasharray="2 14" opacity="0.9"/><circle cx="512" cy="512" r="400" fill="none" stroke="#dfb32b" stroke-width="1.5" opacity="0.35"/><circle cx="512.0" cy="112.0" r="9" fill="#3f7a24" filter="url(#glow)"/><circle cx="712.0" cy="165.6" r="9" fill="#3f7a24" filter="url(#glow)"/><circle cx="905.9" cy="581.5" r="9" fill="#3f7a24" filter="url(#glow)"/><circle cx="512.0" cy="912.0" r="9" fill="#3f7a24" filter="url(#glow)"/><circle cx="118.1" cy="581.5" r="9" fill="#3f7a24" filter="url(#glow)"/><circle cx="312.0" cy="165.6" r="9" fill="#3f7a24" filter="url(#glow)"/>
<g filter="url(#softglow)"><circle cx="858.4" cy="312.0" r="72" fill="#ffffff" stroke="#3f7a24" stroke-width="6"/></g><g transform="translate(858.4,312.0) scale(0.82)"><circle r="32" fill="none" stroke="#dfb32b" stroke-width="6"/><circle r="17" fill="none" stroke="#dfb32b" stroke-width="6"/><circle r="5" fill="#dfb32b"/></g>
<g filter="url(#softglow)"><circle cx="794.8" cy="794.8" r="72" fill="#ffffff" stroke="#3f7a24" stroke-width="6"/></g><g transform="translate(794.8,794.8) scale(0.82)"><line x1="-30" y1="30" x2="30" y2="30" stroke="#dfb32b" stroke-width="6" stroke-linecap="round"/><rect x="-26" y="4" width="13" height="22" fill="#dfb32b"/><rect x="-6" y="-10" width="13" height="36" fill="#dfb32b"/><rect x="14" y="-24" width="13" height="50" fill="#dfb32b"/></g>
<g filter="url(#softglow)"><circle cx="229.2" cy="794.8" r="72" fill="#ffffff" stroke="#3f7a24" stroke-width="6"/></g><g transform="translate(229.2,794.8) scale(0.82)"><polygon points="0.0,-36.0 8.8,-12.1 34.2,-11.1 14.3,4.6 21.2,29.1 0.0,15.0 -21.2,29.1 -14.3,4.6 -34.2,-11.1 -8.8,-12.1" fill="none" stroke="#dfb32b" stroke-width="6" stroke-linejoin="round"/></g>
<g filter="url(#softglow)"><circle cx="165.6" cy="312.0" r="72" fill="#ffffff" stroke="#3f7a24" stroke-width="6"/></g><g transform="translate(165.6,312.0) scale(0.82)"><path d="M-34,26 L-12,2 L4,14 L30,-18" fill="none" stroke="#dfb32b" stroke-width="7" stroke-linecap="round" stroke-linejoin="round"/><path d="M14,-20 L32,-20 L32,-2" fill="none" stroke="#dfb32b" stroke-width="7" stroke-linecap="round" stroke-linejoin="round"/></g>
<circle cx="512" cy="512" r="320" fill="none" stroke="#dfb32b" stroke-width="2" opacity="0.4"/><circle cx="512" cy="512" r="265" fill="none" stroke="#3f7a24" stroke-width="2" opacity="0.4"/><g transform="translate(512,495)"><rect x="-178" y="40" width="56" height="90" rx="10" fill="#b9d29b" opacity="0.5"/><rect x="-118" y="-10" width="56" height="140" rx="10" fill="#b9d29b" opacity="0.5"/><rect x="122" y="10" width="56" height="120" rx="10" fill="#b9d29b" opacity="0.5"/><rect x="62" y="-50" width="56" height="180" rx="10" fill="#b9d29b" opacity="0.5"/><g filter="url(#softglow)"><path d="M-92,-150 C-150,-150 -150,-60 -80,-48" fill="none" stroke="url(#goldg)" stroke-width="18"/><path d="M92,-150 C150,-150 150,-60 80,-48" fill="none" stroke="url(#goldg)" stroke-width="18"/><path d="M-95,-170 L95,-170 C95,-70 60,4 0,4 C-60,4 -95,-70 -95,-170 Z" fill="url(#goldg)" stroke="#a8871c" stroke-width="5"/><polygon points="0.0,-126.0 8.2,-103.3 32.3,-102.5 13.3,-87.7 20.0,-64.5 0.0,-78.0 -20.0,-64.5 -13.3,-87.7 -32.3,-102.5 -8.2,-103.3" fill="#2d5a1a"/><path d="M-16,4 L-24,60 L24,60 L16,4 Z" fill="url(#goldg)"/><rect x="-58" y="60" width="116" height="26" rx="8" fill="url(#goldg)"/><rect x="-76" y="86" width="152" height="24" rx="8" fill="url(#goldg)" stroke="#a8871c" stroke-width="4"/></g><circle cx="112" cy="86" r="46" fill="url(#greeng)" stroke="#dfb32b" stroke-width="6"/><path d="M92,86 L106,100 L134,70" fill="none" stroke="#f0cf55" stroke-width="10" stroke-linecap="round" stroke-linejoin="round"/></g>
</svg>