<svg width="1024" height="1024" xmlns="http://www.w3.org/2000/svg" viewBox="0 0 1024 1024">
<defs>
  <filter id="glow" x="-150%" y="-150%" width="400%" height="400%">
    <feGaussianBlur stdDeviation="6" result="b"/>
    <feMerge><feMergeNode in="b"/><feMergeNode in="SourceGraphic"/></feMerge>
  </filter>
  <filter id="softglow" x="-80%" y="-80%" width="260%" height="260%">
    <feGaussianBlur stdDeviation="10" result="b"/>
    <feMerge><feMergeNode in="b"/><feMergeNode in="SourceGraphic"/></feMerge>
  </filter>
  <radialGradient id="bgg" cx="50%" cy="42%" r="75%">
    <stop offset="0%" stop-color="#ffffff"/><stop offset="100%" stop-color="#f4f7ee"/>
  </radialGradient>
  <linearGradient id="goldg" x1="0" y1="0" x2="0" y2="1">
    <stop offset="0%" stop-color="#f0cf55"/><stop offset="55%" stop-color="#dfb32b"/>
    <stop offset="100%" stop-color="#a8871c"/>
  </linearGradient>
  <linearGradient id="greeng" x1="0" y1="0" x2="0" y2="1">
    <stop offset="0%" stop-color="#6aa832"/><stop offset="60%" stop-color="#3f7a24"/>
    <stop offset="100%" stop-color="#2d5a1a"/>
  </linearGradient></defs>
<rect width="1024" height="1024" fill="url(#bgg)"/><circle cx="512" cy="482" r="300" fill="#e9f0dd" opacity="0.9"/>
<circle cx="512" cy="512" r="400" fill="none" stroke="#9dbb7a" stroke-width="3" stroke-dasharray="2 14" opacity="0.9"/><circle cx="512" cy="512" r="400" fill="none" stroke="#dfb32b" stroke-width="1.5" opacity="0.35"/><circle cx="512.0" cy="112.0" r="9" fill="#3f7a24" filter="url(#glow)"/><circle cx="712.0" cy="165.6" r="9" fill="#3f7a24" filter="url(#glow)"/><circle cx="858.4" cy="312.0" r="9" fill="#3f7a24" filter="url(#glow)"/><circle cx="912.0" cy="512.0" r="9" fill="#3f7a24" filter="url(#glow)"/><circle cx="712.0" cy="858.4" r="9" fill="#3f7a24" filter="url(#glow)"/><circle cx="512.0" cy="912.0" r="9" fill="#3f7a24" filter="url(#glow)"/><circle cx="312.0" cy="858.4" r="9" fill="#3f7a24" filter="url(#glow)"/><circle cx="112.0" cy="512.0" r="9" fill="#3f7a24" filter="url(#glow)"/><circle cx="165.6" cy="312.0" r="9" fill="#3f7a24" filter="url(#glow)"/><circle cx="312.0" cy="165.6" r="9" fill="#3f7a24" filter="url(#glow)"/>
<g filter="url(#softglow)"><circle cx="149.5" cy="681.0" r="72" fill="#ffffff" stroke="#3f7a24" stroke-width="6"/></g><g transform="translate(149.5,681.0) scale(0.82)"><ellipse cx="0" cy="-24" rx="28" ry="11" fill="none" stroke="#dfb32b" stroke-width="6"/><path d="M-28,-24 L-28,24 A28,11 0 0 0 28,24 L28,-24" fill="none" stroke="#dfb32b" stroke-width="6"/><path d="M-28,0 A28,11 0 0 0 28,0" fill="none" stroke="#dfb32b" stroke-width="6"/></g>
<g filter="url(#softglow)"><circle cx="874.5" cy="681.0" r="72" fill="#ffffff" stroke="#3f7a24" stroke-width="6"/></g><g transform="translate(874.5,681.0) scale(0.82)"><circle cx="-12" cy="-12" r="12" fill="none" stroke="#dfb32b" stroke-width="6"/><path d="M-32,28 C-32,8 -22,2 -12,2 C-2,2 8,8 8,28" fill="none" stroke="#dfb32b" stroke-width="6" stroke-linecap="round"/><circle cx="16" cy="-16" r="10" fill="none" stroke="#dfb32b" stroke-width="6"/><path d="M14,0 C24,0 32,6 32,24" fill="none" stroke="#dfb32b" stroke-width="6" stroke-linecap="round"/></g>
<g transform="translate(512,495)"><g transform="scale(1.55)" opacity="0.9"><path d="M0,-110 L95,-78 L95,-6 C95,62 55,112 0,134 C-55,112 -95,62 -95,-6 L-95,-78 Z" fill="#dfe9d0" opacity="0.5" stroke="#3f7a24" stroke-width="7"/></g><g transform="translate(-20,-16)"><path d="M-105,-150 L55,-150 L105,-100 L105,150 L-105,150 Z" fill="url(#goldg)" stroke="#a8871c" stroke-width="5" stroke-linejoin="round"/><path d="M55,-150 L55,-100 L105,-100 Z" fill="#f0cf55" stroke="#a8871c" stroke-width="4" stroke-linejoin="round"/><line x1="-70" y1="-60" x2="60" y2="-60" stroke="#2d5a1a" stroke-width="14" stroke-linecap="round"/><line x1="-70" y1="-14" x2="60" y2="-14" stroke="#2d5a1a" stroke-width="14" stroke-linecap="round"/><line x1="-70" y1="32" x2="10" y2="32" stroke="#2d5a1a" stroke-width="14" stroke-linecap="round"/></g><g transform="translate(88,96)" filter="url(#softglow)"><path d="M-34,-14 L-34,-34 A34,34 0 0 1 34,-34 L34,-14" fill="none" stroke="url(#goldg)" stroke-width="18"/><rect x="-56" y="-14" width="112" height="92" rx="14" fill="url(#goldg)" stroke="#a8871c" stroke-width="4"/><circle cx="0" cy="22" r="14" fill="#2d5a1a"/><path d="M-8,28 L-11,54 L11,54 L8,28 Z" fill="#2d5a1a"/></g></g>
</svg>