<svg xmlns="http://www.w3.org/2000/svg" viewBox="0 0 1024 1024">
<defs>
  <filter id="glow" x="-150%" y="-150%" width="400%" height="400%">
    <feGaussianBlur stdDeviation="6" result="b"/>
    <feMerge><feMergeNode in="b"/><feMergeNode in="SourceGraphic"/></feMerge>
  </filter>
  <filter id="softglow" x="-80%" y="-80%" width="260%" height="260%">
    <feGaussianBlur stdDeviation="10" result="b"/>
    <feMerge><feMergeNode in="b"/><feMergeNode in="SourceGraphic"/></feMerge>
  </filter>
  <radialGradient id="bgg" cx="50%" cy="42%" r="75%">
    <stop offset="0%" stop-color="#0b1508"/><stop offset="100%" stop-color="#050a04"/>
  </radialGradient>
  <linearGradient id="goldg" x1="0" y1="0" x2="0" y2="1">
    <stop offset="0%" stop-color="#f6dd6a"/><stop offset="55%" stop-color="#e8c132"/>
    <stop offset="100%" stop-color="#a8871c"/>
  </linearGradient>
  <linearGradient id="greeng" x1="0" y1="0" x2="0" y2="1">
    <stop offset="0%" stop-color="#8fce3c"/><stop offset="60%" stop-color="#4a8c2a"/>
    <stop offset="100%" stop-color="#2f5c1a"/>
  </linearGradient></defs>
<rect width="1024" height="1024" fill="url(#bgg)"/><circle cx="512" cy="512" r="330" fill="#4a8c2a" opacity="0.10"/><circle cx="512" cy="512" r="230" fill="#8fce3c" opacity="0.07"/>
<circle cx="512" cy="512" r="400" fill="none" stroke="#5a7a2a" stroke-width="3" stroke-dasharray="2 14" opacity="0.9"/><circle cx="512" cy="512" r="400" fill="none" stroke="#e8c132" stroke-width="1.5" opacity="0.35"/><circle cx="794.8" cy="229.2" r="9" fill="#c8e84a" filter="url(#glow)"/><circle cx="858.4" cy="712.0" r="9" fill="#c8e84a" filter="url(#glow)"/><circle cx="512.0" cy="912.0" r="9" fill="#c8e84a" filter="url(#glow)"/><circle cx="149.5" cy="681.0" r="9" fill="#c8e84a" filter="url(#glow)"/><circle cx="229.2" cy="229.2" r="9" fill="#c8e84a" filter="url(#glow)"/>
<g filter="url(#softglow)"><circle cx="512.0" cy="112.0" r="72" fill="#0d1a0a" stroke="#7ab438" stroke-width="6"/></g><g transform="translate(512.0,112.0) scale(0.82)"><path d="M0,-32 L34,28 L-34,28 Z" fill="none" stroke="#e8c132" stroke-width="7" stroke-linejoin="round"/><line x1="0" y1="-10" x2="0" y2="10" stroke="#e8c132" stroke-width="7" stroke-linecap="round"/><circle cx="0" cy="20" r="4" fill="#e8c132"/></g>
<g filter="url(#softglow)"><circle cx="912.0" cy="512.0" r="72" fill="#0d1a0a" stroke="#7ab438" stroke-width="6"/></g><g transform="translate(912.0,512.0) scale(0.82)"><line x1="0.0" y1="-24.0" x2="0.0" y2="-36.0" stroke="#e8c132" stroke-width="10"/><line x1="17.0" y1="-17.0" x2="25.5" y2="-25.5" stroke="#e8c132" stroke-width="10"/><line x1="24.0" y1="-0.0" x2="36.0" y2="-0.0" stroke="#e8c132" stroke-width="10"/><line x1="17.0" y1="17.0" x2="25.5" y2="25.5" stroke="#e8c132" stroke-width="10"/><line x1="0.0" y1="24.0" x2="0.0" y2="36.0" stroke="#e8c132" stroke-width="10"/><line x1="-17.0" y1="17.0" x2="-25.5" y2="25.5" stroke="#e8c132" stroke-width="10"/><line x1="-24.0" y1="0.0" x2="-36.0" y2="0.0" stroke="#e8c132" stroke-width="10"/><line x1="-17.0" y1="-17.0" x2="-25.5" y2="-25.5" stroke="#e8c132" stroke-width="10"/><circle cx="0" cy="0" r="24" fill="none" stroke="#e8c132" stroke-width="7"/><circle cx="0" cy="0" r="9" fill="none" stroke="#e8c132" stroke-width="6"/></g>
<g filter="url(#softglow)"><circle cx="741.4" cy="839.7" r="72" fill="#0d1a0a" stroke="#7ab438" stroke-width="6"/></g><g transform="translate(741.4,839.7) scale(0.82)"><line x1="0.0" y1="-24.0" x2="0.0" y2="-36.0" stroke="#e8c132" stroke-width="10"/><line x1="17.0" y1="-17.0" x2="25.5" y2="-25.5" stroke="#e8c132" stroke-width="10"/><line x1="24.0" y1="-0.0" x2="36.0" y2="-0.0" stroke="#e8c132" stroke-width="10"/><line x1="17.0" y1="17.0" x2="25.5" y2="25.5" stroke="#e8c132" stroke-width="10"/><line x1="0.0" y1="24.0" x2="0.0" y2="36.0" stroke="#e8c132" stroke-width="10"/><line x1="-17.0" y1="17.0" x2="-25.5" y2="25.5" stroke="#e8c132" stroke-width="10"/><line x1="-24.0" y1="0.0" x2="-36.0" y2="0.0" stroke="#e8c132" stroke-width="10"/><line x1="-17.0" y1="-17.0" x2="-25.5" y2="-25.5" stroke="#e8c132" stroke-width="10"/><circle cx="0" cy="0" r="24" fill="none" stroke="#e8c132" stroke-width="7"/><circle cx="0" cy="0" r="9" fill="none" stroke="#e8c132" stroke-width="6"/></g>
<g filter="url(#softglow)"><circle cx="282.6" cy="839.7" r="72" fill="#0d1a0a" stroke="#7ab438" stroke-width="6"/></g><g transform="translate(282.6,839.7) scale(0.82)"><line x1="-30" y1="30" x2="30" y2="30" stroke="#e8c132" stroke-width="6" stroke-linecap="round"/><rect x="-26" y="4" width="13" height="22" fill="#e8c132"/><rect x="-6" y="-10" width="13" height="36" fill="#e8c132"/><rect x="14" y="-24" width="13" height="50" fill="#e8c132"/></g>
<g filter="url(#softglow)"><circle cx="112.0" cy="512.0" r="72" fill="#0d1a0a" stroke="#7ab438" stroke-width="6"/></g><g transform="translate(112.0,512.0) scale(0.82)"><circle cx="0" cy="-16" r="14" fill="none" stroke="#e8c132" stroke-width="7"/><path d="M-26,32 C-26,10 -14,4 0,4 C14,4 26,10 26,32" fill="none" stroke="#e8c132" stroke-width="7" stroke-linecap="round"/></g>
<path d="M0,880 Q256,835 512,880 T1024,880" fill="none" stroke="#4a8c2a" stroke-width="1.5" opacity="0.35"/><path d="M0,910 Q256,865 512,910 T1024,910" fill="none" stroke="#4a8c2a" stroke-width="1.5" opacity="0.26999999999999996"/><path d="M0,940 Q256,895 512,940 T1024,940" fill="none" stroke="#4a8c2a" stroke-width="1.5" opacity="0.18999999999999997"/><g transform="translate(512,505)"><circle r="205" fill="#2f5c1a" opacity="0.35"/><circle r="205" fill="none" stroke="url(#goldg)" stroke-width="22" filter="url(#softglow)"/><circle r="150" fill="none" stroke="#e8c132" stroke-width="4" opacity="0.75"/><circle r="95" fill="none" stroke="#e8c132" stroke-width="4" opacity="0.75"/><circle r="45" fill="none" stroke="#e8c132" stroke-width="4" opacity="0.75"/><line x1="-194" y1="0" x2="194" y2="0" stroke="#e8c132" stroke-width="3" opacity="0.45"/><line x1="0" y1="-194" x2="0" y2="194" stroke="#e8c132" stroke-width="3" opacity="0.45"/><path d="M0,0 L82,-176 A194,194 0 0 1 187,-50 Z" fill="#f6dd6a" opacity="0.22"/><line x1="0" y1="0" x2="154" y2="-121" stroke="#f6dd6a" stroke-width="9" stroke-linecap="round" filter="url(#glow)"/><circle r="16" fill="url(#goldg)"/><circle cx="60" cy="104" r="8" fill="#c8e84a" filter="url(#glow)"/><circle cx="-75" cy="20" r="8" fill="#c8e84a" filter="url(#glow)"/></g>
</svg>