<svg width="1024" height="1024" xmlns="http://www.w3.org/2000/svg" viewBox="0 0 1024 1024">
<defs>
  <filter id="glow" x="-150%" y="-150%" width="400%" height="400%">
    <feGaussianBlur stdDeviation="6" result="b"/>
    <feMerge><feMergeNode in="b"/><feMergeNode in="SourceGraphic"/></feMerge>
  </filter>
  <filter id="softglow" x="-80%" y="-80%" width="260%" height="260%">
    <feGaussianBlur stdDeviation="10" result="b"/>
    <feMerge><feMergeNode in="b"/><feMergeNode in="SourceGraphic"/></feMerge>
  </filter>
  <radialGradient id="bgg" cx="50%" cy="42%" r="75%">
    <stop offset="0%" stop-color="#0b1508"/><stop offset="100%" stop-color="#050a04"/>
  </radialGradient>
  <linearGradient id="goldg" x1="0" y1="0" x2="0" y2="1">
    <stop offset="0%" stop-color="#f6dd6a"/><stop offset="55%" stop-color="#e8c132"/>
    <stop offset="100%" stop-color="#a8871c"/>
  </linearGradient>
  <linearGradient id="greeng" x1="0" y1="0" x2="0" y2="1">
    <stop offset="0%" stop-color="#8fce3c"/><stop offset="60%" stop-color="#4a8c2a"/>
    <stop offset="100%" stop-color="#2f5c1a"/>
  </linearGradient></defs>
<rect width="1024" height="1024" fill="url(#bgg)"/><circle cx="512" cy="512" r="330" fill="#4a8c2a" opacity="0.10"/><circle cx="512" cy="512" r="230" fill="#8fce3c" opacity="0.07"/>
<circle cx="512" cy="512" r="400" fill="none" stroke="#5a7a2a" stroke-width="3" stroke-dasharray="2 14" opacity="0.9"/><circle cx="512" cy="512" r="400" fill="none" stroke="#e8c132" stroke-width="1.5" opacity="0.35"/><circle cx="512.0" cy="112.0" r="9" fill="#c8e84a" filter="url(#glow)"/><circle cx="712.0" cy="165.6" r="9" fill="#c8e84a" filter="url(#glow)"/><circle cx="912.0" cy="512.0" r="9" fill="#c8e84a" filter="url(#glow)"/><circle cx="615.5" cy="898.4" r="9" fill="#c8e84a" filter="url(#glow)"/><circle cx="408.5" cy="898.4" r="9" fill="#c8e84a" filter="url(#glow)"/><circle cx="112.0" cy="512.0" r="9" fill="#c8e84a" filter="url(#glow)"/><circle cx="312.0" cy="165.6" r="9" fill="#c8e84a" filter="url(#glow)"/>
<g filter="url(#softglow)"><circle cx="858.4" cy="312.0" r="72" fill="#0d1a0a" stroke="#7ab438" stroke-width="6"/></g><g transform="translate(858.4,312.0) scale(0.82)"><circle cx="-12" cy="-12" r="12" fill="none" stroke="#e8c132" stroke-width="6"/><path d="M-32,28 C-32,8 -22,2 -12,2 C-2,2 8,8 8,28" fill="none" stroke="#e8c132" stroke-width="6" stroke-linecap="round"/><circle cx="16" cy="-16" r="10" fill="none" stroke="#e8c132" stroke-width="6"/><path d="M14,0 C24,0 32,6 32,24" fill="none" stroke="#e8c132" stroke-width="6" stroke-linecap="round"/></g>
<g filter="url(#softglow)"><circle cx="794.8" cy="794.8" r="72" fill="#0d1a0a" stroke="#7ab438" stroke-width="6"/></g><g transform="translate(794.8,794.8) scale(0.82)"><rect x="-26" y="-30" width="52" height="64" rx="6" fill="none" stroke="#e8c132" stroke-width="6"/><rect x="-12" y="-38" width="24" height="14" rx="4" fill="none" stroke="#e8c132" stroke-width="6"/><line x1="-14" y1="-6" x2="14" y2="-6" stroke="#e8c132" stroke-width="5" stroke-linecap="round"/><line x1="-14" y1="8" x2="14" y2="8" stroke="#e8c132" stroke-width="5" stroke-linecap="round"/><path d="M-12,20 L-5,26 L12,12" fill="none" stroke="#e8c132" stroke-width="5" stroke-linecap="round" stroke-linejoin="round"/></g>
<g filter="url(#softglow)"><circle cx="229.2" cy="794.8" r="72" fill="#0d1a0a" stroke="#7ab438" stroke-width="6"/></g><g transform="translate(229.2,794.8) scale(0.82)"><path d="M-24,22 A15,15 0 0 1 -24,-6 A19,19 0 0 1 12,-14 A14,14 0 0 1 26,22 Z" fill="none" stroke="#e8c132" stroke-width="7" stroke-linejoin="round"/></g>
<g filter="url(#softglow)"><circle cx="165.6" cy="312.0" r="72" fill="#0d1a0a" stroke="#7ab438" stroke-width="6"/></g><g transform="translate(165.6,312.0) scale(0.82)"><line x1="-30" y1="30" x2="30" y2="30" stroke="#e8c132" stroke-width="6" stroke-linecap="round"/><rect x="-26" y="4" width="13" height="22" fill="#e8c132"/><rect x="-6" y="-10" width="13" height="36" fill="#e8c132"/><rect x="14" y="-24" width="13" height="50" fill="#e8c132"/></g>
<g opacity="0.5"><circle cx="597" cy="338" r="2.6" fill="#4a8c2a" opacity="0.6"/><circle cx="579" cy="336" r="2.6" fill="#4a8c2a" opacity="0.6"/><circle cx="540" cy="576" r="2.6" fill="#4a8c2a" opacity="0.6"/><circle cx="622" cy="726" r="2.6" fill="#4a8c2a" opacity="0.6"/><circle cx="583" cy="277" r="2.6" fill="#4a8c2a" opacity="0.6"/><circle cx="584" cy="456" r="2.6" fill="#4a8c2a" opacity="0.6"/><circle cx="388" cy="616" r="2.6" fill="#4a8c2a" opacity="0.6"/><circle cx="537" cy="452" r="2.6" fill="#4a8c2a" opacity="0.6"/><circle cx="355" cy="585" r="2.6" fill="#4a8c2a" opacity="0.6"/><circle cx="421" cy="665" r="2.6" fill="#4a8c2a" opacity="0.6"/><circle cx="299" cy="451" r="2.6" fill="#4a8c2a" opacity="0.6"/><circle cx="663" cy="405" r="2.6" fill="#4a8c2a" opacity="0.6"/><circle cx="399" cy="679" r="2.6" fill="#4a8c2a" opacity="0.6"/><circle cx="295" cy="374" r="2.6" fill="#4a8c2a" opacity="0.6"/><circle cx="537" cy="334" r="2.6" fill="#4a8c2a" opacity="0.6"/><circle cx="608" cy="421" r="2.6" fill="#4a8c2a" opacity="0.6"/><circle cx="458" cy="460" r="2.6" fill="#4a8c2a" opacity="0.6"/><circle cx="407" cy="420" r="2.6" fill="#4a8c2a" opacity="0.6"/><circle cx="602" cy="447" r="2.6" fill="#4a8c2a" opacity="0.6"/><circle cx="529" cy="513" r="2.6" fill="#4a8c2a" opacity="0.6"/><circle cx="617" cy="643" r="2.6" fill="#4a8c2a" opacity="0.6"/><circle cx="463" cy="556" r="2.6" fill="#4a8c2a" opacity="0.6"/><circle cx="615" cy="485" r="2.6" fill="#4a8c2a" opacity="0.6"/><circle cx="513" cy="508" r="2.6" fill="#4a8c2a" opacity="0.6"/><circle cx="607" cy="384" r="2.6" fill="#4a8c2a" opacity="0.6"/><circle cx="365" cy="366" r="2.6" fill="#4a8c2a" opacity="0.6"/><circle cx="668" cy="514" r="2.6" fill="#4a8c2a" opacity="0.6"/><circle cx="551" cy="692" r="2.6" fill="#4a8c2a" opacity="0.6"/><circle cx="605" cy="388" r="2.6" fill="#4a8c2a" opacity="0.6"/><circle cx="418" cy="461" r="2.6" fill="#4a8c2a" opacity="0.6"/><circle cx="454" cy="328" r="2.6" fill="#4a8c2a" opacity="0.6"/><circle cx="500" cy="554" r="2.6" fill="#4a8c2a" opacity="0.6"/><circle cx="672" cy="523" r="2.6" fill="#4a8c2a" opacity="0.6"/><circle cx="305" cy="417" r="2.6" fill="#4a8c2a" opacity="0.6"/><circle cx="495" cy="669" r="2.6" fill="#4a8c2a" opacity="0.6"/><circle cx="536" cy="374" r="2.6" fill="#4a8c2a" opacity="0.6"/><circle cx="270" cy="604" r="2.6" fill="#4a8c2a" opacity="0.6"/><circle cx="606" cy="594" r="2.6" fill="#4a8c2a" opacity="0.6"/><circle cx="370" cy="315" r="2.6" fill="#4a8c2a" opacity="0.6"/><circle cx="318" cy="648" r="2.6" fill="#4a8c2a" opacity="0.6"/><circle cx="329" cy="512" r="2.6" fill="#4a8c2a" opacity="0.6"/><circle cx="482" cy="348" r="2.6" fill="#4a8c2a" opacity="0.6"/><circle cx="438" cy="299" r="2.6" fill="#4a8c2a" opacity="0.6"/><circle cx="485" cy="299" r="2.6" fill="#4a8c2a" opacity="0.6"/><circle cx="483" cy="603" r="2.6" fill="#4a8c2a" opacity="0.6"/><circle cx="473" cy="302" r="2.6" fill="#4a8c2a" opacity="0.6"/><circle cx="404" cy="456" r="2.6" fill="#4a8c2a" opacity="0.6"/><circle cx="683" cy="522" r="2.6" fill="#4a8c2a" opacity="0.6"/><circle cx="428" cy="379" r="2.6" fill="#4a8c2a" opacity="0.6"/><circle cx="386" cy="730" r="2.6" fill="#4a8c2a" opacity="0.6"/><circle cx="419" cy="349" r="2.6" fill="#4a8c2a" opacity="0.6"/><circle cx="507" cy="548" r="2.6" fill="#4a8c2a" opacity="0.6"/><circle cx="459" cy="654" r="2.6" fill="#4a8c2a" opacity="0.6"/><circle cx="432" cy="733" r="2.6" fill="#4a8c2a" opacity="0.6"/><circle cx="463" cy="635" r="2.6" fill="#4a8c2a" opacity="0.6"/><circle cx="259" cy="496" r="2.6" fill="#4a8c2a" opacity="0.6"/><circle cx="390" cy="655" r="2.6" fill="#4a8c2a" opacity="0.6"/><circle cx="345" cy="575" r="2.6" fill="#4a8c2a" opacity="0.6"/><circle cx="332" cy="328" r="2.6" fill="#4a8c2a" opacity="0.6"/><circle cx="582" cy="452" r="2.6" fill="#4a8c2a" opacity="0.6"/><circle cx="569" cy="395" r="2.6" fill="#4a8c2a" opacity="0.6"/><circle cx="766" cy="463" r="2.6" fill="#4a8c2a" opacity="0.6"/><circle cx="660" cy="420" r="2.6" fill="#4a8c2a" opacity="0.6"/><circle cx="611" cy="574" r="2.6" fill="#4a8c2a" opacity="0.6"/><circle cx="525" cy="545" r="2.6" fill="#4a8c2a" opacity="0.6"/><circle cx="379" cy="647" r="2.6" fill="#4a8c2a" opacity="0.6"/><circle cx="596" cy="404" r="2.6" fill="#4a8c2a" opacity="0.6"/><circle cx="376" cy="487" r="2.6" fill="#4a8c2a" opacity="0.6"/><circle cx="417" cy="712" r="2.6" fill="#4a8c2a" opacity="0.6"/><circle cx="590" cy="306" r="2.6" fill="#4a8c2a" opacity="0.6"/><circle cx="612" cy="287" r="2.6" fill="#4a8c2a" opacity="0.6"/><circle cx="607" cy="523" r="2.6" fill="#4a8c2a" opacity="0.6"/><circle cx="599" cy="506" r="2.6" fill="#4a8c2a" opacity="0.6"/><circle cx="549" cy="399" r="2.6" fill="#4a8c2a" opacity="0.6"/><circle cx="729" cy="590" r="2.6" fill="#4a8c2a" opacity="0.6"/><circle cx="512" cy="624" r="2.6" fill="#4a8c2a" opacity="0.6"/><circle cx="527" cy="380" r="2.6" fill="#4a8c2a" opacity="0.6"/><circle cx="316" cy="533" r="2.6" fill="#4a8c2a" opacity="0.6"/><circle cx="552" cy="765" r="2.6" fill="#4a8c2a" opacity="0.6"/><circle cx="354" cy="439" r="2.6" fill="#4a8c2a" opacity="0.6"/><circle cx="369" cy="428" r="2.6" fill="#4a8c2a" opacity="0.6"/><circle cx="269" cy="612" r="2.6" fill="#4a8c2a" opacity="0.6"/><circle cx="600" cy="641" r="2.6" fill="#4a8c2a" opacity="0.6"/><circle cx="619" cy="516" r="2.6" fill="#4a8c2a" opacity="0.6"/><circle cx="640" cy="538" r="2.6" fill="#4a8c2a" opacity="0.6"/><circle cx="539" cy="614" r="2.6" fill="#4a8c2a" opacity="0.6"/><circle cx="659" cy="570" r="2.6" fill="#4a8c2a" opacity="0.6"/><circle cx="636" cy="646" r="2.6" fill="#4a8c2a" opacity="0.6"/><circle cx="691" cy="455" r="2.6" fill="#4a8c2a" opacity="0.6"/><circle cx="591" cy="519" r="2.6" fill="#4a8c2a" opacity="0.6"/><circle cx="522" cy="474" r="2.6" fill="#4a8c2a" opacity="0.6"/><circle cx="714" cy="490" r="2.6" fill="#4a8c2a" opacity="0.6"/><circle cx="398" cy="392" r="2.6" fill="#4a8c2a" opacity="0.6"/><circle cx="421" cy="474" r="2.6" fill="#4a8c2a" opacity="0.6"/><circle cx="311" cy="602" r="2.6" fill="#4a8c2a" opacity="0.6"/><circle cx="531" cy="417" r="2.6" fill="#4a8c2a" opacity="0.6"/><circle cx="324" cy="514" r="2.6" fill="#4a8c2a" opacity="0.6"/><circle cx="584" cy="513" r="2.6" fill="#4a8c2a" opacity="0.6"/><circle cx="484" cy="328" r="2.6" fill="#4a8c2a" opacity="0.6"/><circle cx="370" cy="670" r="2.6" fill="#4a8c2a" opacity="0.6"/><circle cx="700" cy="579" r="2.6" fill="#4a8c2a" opacity="0.6"/><circle cx="308" cy="589" r="2.6" fill="#4a8c2a" opacity="0.6"/><circle cx="493" cy="692" r="2.6" fill="#4a8c2a" opacity="0.6"/><circle cx="682" cy="328" r="2.6" fill="#4a8c2a" opacity="0.6"/><circle cx="477" cy="258" r="2.6" fill="#4a8c2a" opacity="0.6"/><circle cx="555" cy="642" r="2.6" fill="#4a8c2a" opacity="0.6"/><circle cx="690" cy="351" r="2.6" fill="#4a8c2a" opacity="0.6"/><circle cx="367" cy="344" r="2.6" fill="#4a8c2a" opacity="0.6"/><circle cx="401" cy="364" r="2.6" fill="#4a8c2a" opacity="0.6"/><circle cx="516" cy="326" r="2.6" fill="#4a8c2a" opacity="0.6"/><circle cx="606" cy="544" r="2.6" fill="#4a8c2a" opacity="0.6"/><circle cx="734" cy="610" r="2.6" fill="#4a8c2a" opacity="0.6"/><circle cx="269" cy="511" r="2.6" fill="#4a8c2a" opacity="0.6"/><circle cx="669" cy="552" r="2.6" fill="#4a8c2a" opacity="0.6"/><circle cx="510" cy="309" r="2.6" fill="#4a8c2a" opacity="0.6"/><circle cx="573" cy="637" r="2.6" fill="#4a8c2a" opacity="0.6"/><circle cx="656" cy="318" r="2.6" fill="#4a8c2a" opacity="0.6"/><circle cx="460" cy="390" r="2.6" fill="#4a8c2a" opacity="0.6"/><circle cx="504" cy="627" r="2.6" fill="#4a8c2a" opacity="0.6"/><circle cx="444" cy="726" r="2.6" fill="#4a8c2a" opacity="0.6"/><circle cx="400" cy="599" r="2.6" fill="#4a8c2a" opacity="0.6"/><circle cx="470" cy="427" r="2.6" fill="#4a8c2a" opacity="0.6"/><circle cx="700" cy="574" r="2.6" fill="#4a8c2a" opacity="0.6"/><circle cx="604" cy="459" r="2.6" fill="#4a8c2a" opacity="0.6"/><circle cx="408" cy="357" r="2.6" fill="#4a8c2a" opacity="0.6"/><circle cx="365" cy="292" r="2.6" fill="#4a8c2a" opacity="0.6"/><circle cx="601" cy="438" r="2.6" fill="#4a8c2a" opacity="0.6"/><circle cx="579" cy="556" r="2.6" fill="#4a8c2a" opacity="0.6"/><circle cx="342" cy="512" r="2.6" fill="#4a8c2a" opacity="0.6"/><circle cx="487" cy="673" r="2.6" fill="#4a8c2a" opacity="0.6"/><circle cx="419" cy="432" r="2.6" fill="#4a8c2a" opacity="0.6"/><circle cx="680" cy="510" r="2.6" fill="#4a8c2a" opacity="0.6"/><circle cx="600" cy="511" r="2.6" fill="#4a8c2a" opacity="0.6"/><circle cx="564" cy="702" r="2.6" fill="#4a8c2a" opacity="0.6"/><circle cx="396" cy="601" r="2.6" fill="#4a8c2a" opacity="0.6"/><circle cx="558" cy="458" r="2.6" fill="#4a8c2a" opacity="0.6"/><circle cx="430" cy="655" r="2.6" fill="#4a8c2a" opacity="0.6"/><circle cx="496" cy="534" r="2.6" fill="#4a8c2a" opacity="0.6"/><circle cx="390" cy="376" r="2.6" fill="#4a8c2a" opacity="0.6"/><circle cx="549" cy="526" r="2.6" fill="#4a8c2a" opacity="0.6"/><circle cx="359" cy="590" r="2.6" fill="#4a8c2a" opacity="0.6"/><circle cx="291" cy="638" r="2.6" fill="#4a8c2a" opacity="0.6"/><circle cx="545" cy="361" r="2.6" fill="#4a8c2a" opacity="0.6"/><circle cx="324" cy="525" r="2.6" fill="#4a8c2a" opacity="0.6"/><circle cx="760" cy="584" r="2.6" fill="#4a8c2a" opacity="0.6"/><circle cx="628" cy="464" r="2.6" fill="#4a8c2a" opacity="0.6"/><circle cx="290" cy="643" r="2.6" fill="#4a8c2a" opacity="0.6"/><circle cx="559" cy="474" r="2.6" fill="#4a8c2a" opacity="0.6"/><circle cx="624" cy="629" r="2.6" fill="#4a8c2a" opacity="0.6"/><circle cx="524" cy="505" r="2.6" fill="#4a8c2a" opacity="0.6"/><circle cx="720" cy="666" r="2.6" fill="#4a8c2a" opacity="0.6"/><circle cx="485" cy="394" r="2.6" fill="#4a8c2a" opacity="0.6"/><circle cx="296" cy="408" r="2.6" fill="#4a8c2a" opacity="0.6"/><circle cx="568" cy="338" r="2.6" fill="#4a8c2a" opacity="0.6"/><circle cx="456" cy="410" r="2.6" fill="#4a8c2a" opacity="0.6"/><circle cx="484" cy="475" r="2.6" fill="#4a8c2a" opacity="0.6"/><circle cx="297" cy="424" r="2.6" fill="#4a8c2a" opacity="0.6"/></g><g transform="translate(490,470)"><g filter="url(#softglow)"><circle r="185" fill="#2f5c1a" stroke="url(#goldg)" stroke-width="30"/></g><g transform="rotate(45)"><rect x="-26" y="182" width="52" height="150" rx="22" fill="url(#goldg)"/><rect x="-26" y="182" width="52" height="26" fill="#a8871c"/></g><g transform="scale(0.95)"><path d="M0,-110 L95,-78 L95,-6 C95,62 55,112 0,134 C-55,112 -95,62 -95,-6 L-95,-78 Z" transform="scale(1.05)" fill="none" stroke="#e8c132" stroke-width="8" opacity="0.9"/><path d="M0,-110 L95,-78 L95,-6 C95,62 55,112 0,134 C-55,112 -95,62 -95,-6 L-95,-78 Z" fill="url(#greeng)" opacity="0.9"/><path d="M-46,4 L-12,42 L52,-40" fill="none" stroke="#f6dd6a" stroke-width="22" stroke-linecap="round" stroke-linejoin="round"/></g></g>
</svg>