<svg width="1024" height="1024" xmlns="http://www.w3.org/2000/svg" viewBox="0 0 1024 1024">
<defs>
  <filter id="glow" x="-150%" y="-150%" width="400%" height="400%">
    <feGaussianBlur stdDeviation="6" result="b"/>
    <feMerge><feMergeNode in="b"/><feMergeNode in="SourceGraphic"/></feMerge>
  </filter>
  <filter id="softglow" x="-80%" y="-80%" width="260%" height="260%">
    <feGaussianBlur stdDeviation="10" result="b"/>
    <feMerge><feMergeNode in="b"/><feMergeNode in="SourceGraphic"/></feMerge>
  </filter>
  <radialGradient id="bgg" cx="50%" cy="42%" r="75%">
    <stop offset="0%" stop-color="#0b1508"/><stop offset="100%" stop-color="#050a04"/>
  </radialGradient>
  <linearGradient id="goldg" x1="0" y1="0" x2="0" y2="1">
    <stop offset="0%" stop-color="#f6dd6a"/><stop offset="55%" stop-color="#e8c132"/>
    <stop offset="100%" stop-color="#a8871c"/>
  </linearGradient>
  <linearGradient id="greeng" x1="0" y1="0" x2="0" y2="1">
    <stop offset="0%" stop-color="#8fce3c"/><stop offset="60%" stop-color="#4a8c2a"/>
    <stop offset="100%" stop-color="#2f5c1a"/>
  </linearGradient></defs>
<rect width="1024" height="1024" fill="url(#bgg)"/><circle cx="512" cy="512" r="330" fill="#4a8c2a" opacity="0.10"/><circle cx="512" cy="512" r="230" fill="#8fce3c" opacity="0.07"/>
<circle cx="512" cy="512" r="400" fill="none" stroke="#5a7a2a" stroke-width="3" stroke-dasharray="2 14" opacity="0.9"/><circle cx="512" cy="512" r="400" fill="none" stroke="#e8c132" stroke-width="1.5" opacity="0.35"/><circle cx="512.0" cy="112.0" r="9" fill="#c8e84a" filter="url(#glow)"/><circle cx="712.0" cy="165.6" r="9" fill="#c8e84a" filter="url(#glow)"/><circle cx="905.9" cy="581.5" r="9" fill="#c8e84a" filter="url(#glow)"/><circle cx="512.0" cy="912.0" r="9" fill="#c8e84a" filter="url(#glow)"/><circle cx="118.1" cy="581.5" r="9" fill="#c8e84a" filter="url(#glow)"/><circle cx="312.0" cy="165.6" r="9" fill="#c8e84a" filter="url(#glow)"/>
<g filter="url(#softglow)"><circle cx="858.4" cy="312.0" r="72" fill="#0d1a0a" stroke="#7ab438" stroke-width="6"/></g><g transform="translate(858.4,312.0) scale(0.82)"><rect x="-26" y="-30" width="52" height="64" rx="6" fill="none" stroke="#e8c132" stroke-width="6"/><rect x="-12" y="-38" width="24" height="14" rx="4" fill="none" stroke="#e8c132" stroke-width="6"/><line x1="-14" y1="-6" x2="14" y2="-6" stroke="#e8c132" stroke-width="5" stroke-linecap="round"/><line x1="-14" y1="8" x2="14" y2="8" stroke="#e8c132" stroke-width="5" stroke-linecap="round"/><path d="M-12,20 L-5,26 L12,12" fill="none" stroke="#e8c132" stroke-width="5" stroke-linecap="round" stroke-linejoin="round"/></g>
<g filter="url(#softglow)"><circle cx="794.8" cy="794.8" r="72" fill="#0d1a0a" stroke="#7ab438" stroke-width="6"/></g><g transform="translate(794.8,794.8) scale(0.82)"><line x1="0.0" y1="-24.0" x2="0.0" y2="-36.0" stroke="#e8c132" stroke-width="10"/><line x1="17.0" y1="-17.0" x2="25.5" y2="-25.5" stroke="#e8c132" stroke-width="10"/><line x1="24.0" y1="-0.0" x2="36.0" y2="-0.0" stroke="#e8c132" stroke-width="10"/><line x1="17.0" y1="17.0" x2="25.5" y2="25.5" stroke="#e8c132" stroke-width="10"/><line x1="0.0" y1="24.0" x2="0.0" y2="36.0" stroke="#e8c132" stroke-width="10"/><line x1="-17.0" y1="17.0" x2="-25.5" y2="25.5" stroke="#e8c132" stroke-width="10"/><line x1="-24.0" y1="0.0" x2="-36.0" y2="0.0" stroke="#e8c132" stroke-width="10"/><line x1="-17.0" y1="-17.0" x2="-25.5" y2="-25.5" stroke="#e8c132" stroke-width="10"/><circle cx="0" cy="0" r="24" fill="none" stroke="#e8c132" stroke-width="7"/><circle cx="0" cy="0" r="9" fill="none" stroke="#e8c132" stroke-width="6"/></g>
<g filter="url(#softglow)"><circle cx="229.2" cy="794.8" r="72" fill="#0d1a0a" stroke="#7ab438" stroke-width="6"/></g><g transform="translate(229.2,794.8) scale(0.82)"><path d="M-36,-30 L36,-30 Q44,-30 44,-22 L44,10 Q44,18 36,18 L-8,18 L-26,34 L-26,18 L-36,18 Q-44,18 -44,10 L-44,-22 Q-44,-30 -36,-30 Z" fill="none" stroke="#e8c132" stroke-width="6" stroke-linejoin="round"/><circle cx="-18" cy="-6" r="4" fill="#e8c132"/><circle cx="0" cy="-6" r="4" fill="#e8c132"/><circle cx="18" cy="-6" r="4" fill="#e8c132"/></g>
<g filter="url(#softglow)"><circle cx="165.6" cy="312.0" r="72" fill="#0d1a0a" stroke="#7ab438" stroke-width="6"/></g><g transform="translate(165.6,312.0) scale(0.82)"><circle r="32" fill="none" stroke="#e8c132" stroke-width="6"/><circle r="17" fill="none" stroke="#e8c132" stroke-width="6"/><circle r="5" fill="#e8c132"/></g>
<circle cx="512" cy="512" r="320" fill="none" stroke="#e8c132" stroke-width="2" opacity="0.4"/><circle cx="512" cy="512" r="265" fill="none" stroke="#4a8c2a" stroke-width="2" opacity="0.4"/><g transform="translate(512,505)"><g filter="url(#softglow)"><circle r="215" fill="#2f5c1a" stroke="url(#goldg)" stroke-width="16"/></g><g transform="translate(-105,-100) scale(1.35)" opacity="0.3"><line x1="0.0" y1="-24.0" x2="0.0" y2="-36.0" stroke="#8fce3c" stroke-width="10"/><line x1="17.0" y1="-17.0" x2="25.5" y2="-25.5" stroke="#8fce3c" stroke-width="10"/><line x1="24.0" y1="-0.0" x2="36.0" y2="-0.0" stroke="#8fce3c" stroke-width="10"/><line x1="17.0" y1="17.0" x2="25.5" y2="25.5" stroke="#8fce3c" stroke-width="10"/><line x1="0.0" y1="24.0" x2="0.0" y2="36.0" stroke="#8fce3c" stroke-width="10"/><line x1="-17.0" y1="17.0" x2="-25.5" y2="25.5" stroke="#8fce3c" stroke-width="10"/><line x1="-24.0" y1="0.0" x2="-36.0" y2="0.0" stroke="#8fce3c" stroke-width="10"/><line x1="-17.0" y1="-17.0" x2="-25.5" y2="-25.5" stroke="#8fce3c" stroke-width="10"/><circle cx="0" cy="0" r="24" fill="none" stroke="#8fce3c" stroke-width="7"/><circle cx="0" cy="0" r="9" fill="none" stroke="#8fce3c" stroke-width="6"/></g><path d="M-125,120 C-55,100 -70,30 -5,5 C 45,-14 30,-60 55,-85" fill="none" stroke="#e8c132" stroke-width="8" stroke-dasharray="4 22" stroke-linecap="round" opacity="0.9"/><circle cx="-125" cy="120" r="46" fill="#0d1a0a" stroke="url(#goldg)" stroke-width="10"/><path d="M-144,120 L-130,135 L-104,105" fill="none" stroke="#f6dd6a" stroke-width="10" stroke-linecap="round" stroke-linejoin="round"/><circle cx="-5" cy="5" r="46" fill="#0d1a0a" stroke="url(#goldg)" stroke-width="10"/><path d="M-24,5 L-10,20 L16,-10" fill="none" stroke="#f6dd6a" stroke-width="10" stroke-linecap="round" stroke-linejoin="round"/><circle cx="55" cy="-78" r="13" fill="#c8e84a" filter="url(#glow)"/><g transform="translate(55,-78)"><line x1="0" y1="0" x2="0" y2="-102" stroke="url(#goldg)" stroke-width="12" stroke-linecap="round"/><path d="M6,-102 L88,-79 L6,-54 Z" fill="url(#goldg)" stroke="#a8871c" stroke-width="3" stroke-linejoin="round"/></g></g>
</svg>